<svg width="37" height="36" viewBox="0 0 37 36" fill="none" xmlns="http://www.w3.org/2000/svg">
<path d="M17.3595 2.25906L17.9395 10.884L18.2274 15.219C18.2305 15.6648 18.3003 16.1077 18.4351 16.5334C18.7828 17.3596 19.6195 17.8846 20.5297 17.8479L34.3989 16.9406C34.9995 16.9309 35.5795 17.1554 36.0112 17.5652C36.3709 17.9067 36.6032 18.3534 36.6766 18.8338L36.7012 19.1254C36.1272 27.0727 30.2903 33.7015 22.3595 35.4125C14.4285 37.1236 6.29586 33.509 2.3768 26.5311C1.24697 24.5038 0.541259 22.2756 0.301114 19.9771C0.200801 19.2967 0.156634 18.6094 0.16903 17.9219C0.156634 9.40154 6.22422 2.03535 14.7177 0.259542C15.7399 0.100355 16.742 0.641521 17.152 1.57404C17.258 1.79 17.328 2.02129 17.3595 2.25906Z" fill="black" fill-opacity="0.3"/>
</svg>
