<svg width="39" height="39" viewBox="0 0 39 39" fill="none" xmlns="http://www.w3.org/2000/svg">
<path d="M39 19.5C39 24.6717 36.9455 29.6316 33.2886 33.2886C29.6316 36.9455 24.6717 39 19.5 39C14.3283 39 9.36838 36.9455 5.71142 33.2886C2.05446 29.6316 0 24.6717 0 19.5C0 14.3283 2.05446 9.36838 5.71142 5.71142C9.36838 2.05446 14.3283 0 19.5 0C24.6717 0 29.6316 2.05446 33.2886 5.71142C36.9455 9.36838 39 14.3283 39 19.5ZM20.7188 10.9688C20.7188 10.6455 20.5903 10.3355 20.3618 10.107C20.1332 9.8784 19.8232 9.75 19.5 9.75C19.1768 9.75 18.8668 9.8784 18.6382 10.107C18.4097 10.3355 18.2812 10.6455 18.2812 10.9688V18.2812H10.9688C10.6455 18.2812 10.3355 18.4097 10.107 18.6382C9.8784 18.8668 9.75 19.1768 9.75 19.5C9.75 19.8232 9.8784 20.1332 10.107 20.3618C10.3355 20.5903 10.6455 20.7188 10.9688 20.7188H18.2812V28.0312C18.2812 28.3545 18.4097 28.6645 18.6382 28.893C18.8668 29.1216 19.1768 29.25 19.5 29.25C19.8232 29.25 20.1332 29.1216 20.3618 28.893C20.5903 28.6645 20.7188 28.3545 20.7188 28.0312V20.7188H28.0312C28.3545 20.7188 28.6645 20.5903 28.893 20.3618C29.1216 20.1332 29.25 19.8232 29.25 19.5C29.25 19.1768 29.1216 18.8668 28.893 18.6382C28.6645 18.4097 28.3545 18.2812 28.0312 18.2812H20.7188V10.9688Z" fill="#91F586"/>
</svg>
