<svg width="33" height="33" viewBox="0 0 33 33" fill="none" xmlns="http://www.w3.org/2000/svg">
<path d="M2.53846 2.2C1.86522 2.2 1.21955 2.43179 0.743498 2.84437C0.267444 3.25695 0 3.81652 0 4.4V6.6C0 7.18348 0.267444 7.74305 0.743498 8.15563C1.21955 8.56822 1.86522 8.8 2.53846 8.8H3.80769V28.6C3.80769 29.767 4.34258 30.8861 5.29469 31.7113C6.2468 32.5364 7.53813 33 8.88461 33H24.1154C25.4619 33 26.7532 32.5364 27.7053 31.7113C28.6574 30.8861 29.1923 29.767 29.1923 28.6V8.8H30.4615C31.1348 8.8 31.7804 8.56822 32.2565 8.15563C32.7326 7.74305 33 7.18348 33 6.6V4.4C33 3.81652 32.7326 3.25695 32.2565 2.84437C31.7804 2.43179 31.1348 2.2 30.4615 2.2H21.5769C21.5769 1.61652 21.3095 1.05695 20.8334 0.644365C20.3574 0.231785 19.7117 0 19.0385 0L13.9615 0C13.2883 0 12.6426 0.231785 12.1666 0.644365C11.6905 1.05695 11.4231 1.61652 11.4231 2.2H2.53846ZM10.1538 11C10.4905 11 10.8133 11.1159 11.0513 11.3222C11.2894 11.5285 11.4231 11.8083 11.4231 12.1V27.5C11.4231 27.7917 11.2894 28.0715 11.0513 28.2778C10.8133 28.4841 10.4905 28.6 10.1538 28.6C9.81722 28.6 9.49439 28.4841 9.25636 28.2778C9.01834 28.0715 8.88461 27.7917 8.88461 27.5V12.1C8.88461 11.8083 9.01834 11.5285 9.25636 11.3222C9.49439 11.1159 9.81722 11 10.1538 11ZM16.5 11C16.8366 11 17.1595 11.1159 17.3975 11.3222C17.6355 11.5285 17.7692 11.8083 17.7692 12.1V27.5C17.7692 27.7917 17.6355 28.0715 17.3975 28.2778C17.1595 28.4841 16.8366 28.6 16.5 28.6C16.1634 28.6 15.8405 28.4841 15.6025 28.2778C15.3645 28.0715 15.2308 27.7917 15.2308 27.5V12.1C15.2308 11.8083 15.3645 11.5285 15.6025 11.3222C15.8405 11.1159 16.1634 11 16.5 11ZM24.1154 12.1V27.5C24.1154 27.7917 23.9817 28.0715 23.7436 28.2778C23.5056 28.4841 23.1828 28.6 22.8462 28.6C22.5095 28.6 22.1867 28.4841 21.9487 28.2778C21.7106 28.0715 21.5769 27.7917 21.5769 27.5V12.1C21.5769 11.8083 21.7106 11.5285 21.9487 11.3222C22.1867 11.1159 22.5095 11 22.8462 11C23.1828 11 23.5056 11.1159 23.7436 11.3222C23.9817 11.5285 24.1154 11.8083 24.1154 12.1Z" fill="#F0635D"/>
</svg>
